<?xml version="1.0" encoding="utf-8"?>
<!-- Generator: Adobe Illustrator 22.1.0, SVG Export Plug-In . SVG Version: 6.00 Build 0)  -->
<svg version="1.1" id="Layer_1" xmlns="http://www.w3.org/2000/svg" xmlns:xlink="http://www.w3.org/1999/xlink" x="0px" y="0px"
	 width="369px" height="60px" viewBox="0 0 369 60" style="enable-background:new 0 0 369 60;" xml:space="preserve">
<style type="text/css">
	.st0{fill:#45AAE0;}
	.st1{fill:#F4A01E;}
</style>
<g>
	<g>
		<path class="st0" d="M0.2,30c0-17.8,10.5-30,27.7-30c17.3,0,27.8,12.4,27.8,30c0,17.8-10.2,29.9-27.8,29.9
			C10.2,59.8,0.2,47.7,0.2,30z M12,30c0,11.4,5,19.9,15.9,19.9c10.8,0,16-8.2,16-19.9c0-11.4-5.1-19.6-16-19.6
			C17.1,10.3,12,18.7,12,30z"/>
		<path class="st0" d="M94.1,59c-3.8-0.3-5.6-2-5.6-5.6V30.1c-0.3-4.7-2.8-7-7.9-7s-7.6,2.3-7.7,7V59H61.4V32.4
			c0-12.9,6.5-19.3,19.4-19.3s19.2,6.4,19.1,19.3V59H94.1z"/>
	</g>
	<g>
		<path class="st0" d="M125.2,60c-13.7-0.4-20.5-8.4-20.5-23.7c0-15.4,6.9-23,20.7-23.1c14.3,0,21.1,8.8,20.2,26.5h-29.2
			c0.4,6.9,3.4,10.4,9,10.4c2.6,0,5.1-1.1,7.3-3.2c1-1.1,2.3-1.6,3.8-1.6h8.4C142.4,54.7,136.3,60,125.2,60z M116.6,31.5h17
			c-0.7-6-3.5-9-8.4-9S117.4,25.5,116.6,31.5z"/>
	</g>
	<g>
		<path class="st1" d="M150.2,7.2c0-4.1,2-6.2,6-6.2h5.9v58h-11.9V7.2z"/>
		<path class="st1" d="M200.7,59c-3.8-0.3-5.6-2-5.6-5.6V30.1c-0.3-4.7-2.8-7-7.9-7c-5,0-7.6,2.3-7.7,7V59H168V32.4
			c0-12.9,6.5-19.3,19.4-19.3c12.9,0,19.2,6.4,19.1,19.3V59H200.7z"/>
		<path class="st1" d="M231.3,50.8c4.8,0,7.2-1.4,7.2-4.3c0-2.3-3.9-4.2-11.7-5.5c-10-1.8-15.1-6.2-15.2-13.3
			c0-9.7,7.7-14.3,18-14.5c5.8,0,10.4,1.3,13.8,3.8c3.3,2.6,5.1,6.3,5.4,11h-7.2c-2.6-0.1-4.4-1-5-2.8c-0.8-2-3.1-3.1-6.8-3.1
			c-4.4,0-6.7,1.2-6.7,3.5c0,2.3,2.9,4.1,8.8,5.2c7.7,1.5,12.7,3.5,15.2,5.8c2.1,2.2,3.2,5,3.2,8c0,11.1-8.7,15.2-20.7,15.2
			c-6.3,0-11.1-1.4-14.2-4c-3.4-2.6-5.1-6.5-5.1-11.7h11.6C222.2,49.1,225.7,50.8,231.3,50.8z"/>
		<path class="st1" d="M293.2,41c0,7.8-2,12.9-6,15.4c-4,2.3-8.5,3.5-13.3,3.5c-4.7,0-8.9-1.3-12.8-3.8c-3.9-2.5-5.9-7.4-5.9-15
			V13.8h11.4v29.4c0,5,2.6,7.5,7.7,7.5c5.1,0,7.7-2.5,7.7-7.5V19.5c-0.1-3.8,1.7-5.6,5.5-5.6h5.8V41z"/>
		<path class="st1" d="M298.1,35.7c0.3-14.6,8.1-21.8,23.2-21.8h1.6v11.8h-3.8c-6.3,0-9.5,3.3-9.5,9.9V59h-11.5V35.7z"/>
		<path class="st1" d="M348.4,60c-13.7-0.4-20.5-8.4-20.5-23.7c0-15.4,6.9-23,20.7-23.1c14.3,0,21.1,8.8,20.2,26.5h-29.2
			c0.4,6.9,3.4,10.4,9,10.4c2.6,0,5.1-1.1,7.3-3.2c1-1.1,2.3-1.6,3.8-1.6h8.4C365.6,54.7,359.5,60,348.4,60z M339.8,31.5h17
			c-0.7-6-3.5-9-8.4-9S340.6,25.5,339.8,31.5z"/>
	</g>
</g>
</svg>
